<?xml version="1.0" encoding="utf-8"?>
<!-- Generator: Adobe Illustrator 26.0.2, SVG Export Plug-In . SVG Version: 6.00 Build 0)  -->
<svg version="1.1" id="レイヤー_1" xmlns="http://www.w3.org/2000/svg" xmlns:xlink="http://www.w3.org/1999/xlink" x="0px"
	 y="0px" viewBox="0 0 283.5 283.5" style="enable-background:new 0 0 283.5 283.5;" xml:space="preserve">
<style type="text/css">
	.st0{fill:#FF00FF;}
	.st1{fill-rule:evenodd;clip-rule:evenodd;fill:#FF00FF;}
</style>
<path class="st0" d="M194.4,90.4c-13.3-13.3-31.7-21.5-52-21.5c-20.3,0-38.7,8.2-52,21.5c-13.3,13.3-21.5,31.7-21.5,52
	c0,20.3,8.2,38.7,21.5,52c13.3,13.3,31.7,21.5,52,21.5s38.7-8.2,52-21.5c13.3-13.3,21.5-31.7,21.5-52
	C215.9,122.1,207.7,103.7,194.4,90.4 M142.4,62.3c22.1,0,42.1,9,56.6,23.4c14.5,14.5,23.4,34.5,23.4,56.6c0,22.1-9,42.1-23.4,56.6
	c-14.5,14.5-34.5,23.4-56.6,23.4c-22.1,0-42.1-9-56.6-23.4c-14.5-14.5-23.4-34.5-23.4-56.6c0-22.1,9-42.1,23.4-56.6
	C100.2,71.3,120.3,62.3,142.4,62.3z"/>
<path class="st0" d="M231.6,53.2c-22.8-22.8-54.4-37-89.2-37S76,30.3,53.2,53.2c-22.8,22.8-37,54.4-37,89.2s14.1,66.4,37,89.2
	c22.8,22.8,54.4,37,89.2,37s66.4-14.1,89.2-37s37-54.4,37-89.2S254.4,76,231.6,53.2 M142.4,9.9c36.6,0,69.7,14.8,93.7,38.8
	c24,24,38.8,57.1,38.8,93.7c0,36.6-14.8,69.7-38.8,93.7s-57.1,38.8-93.7,38.8c-36.6,0-69.7-14.8-93.7-38.8
	c-24-24-38.8-57.1-38.8-93.7c0-36.6,14.8-69.7,38.8-93.7C72.7,24.7,105.8,9.9,142.4,9.9z"/>
<path class="st1" d="M239,72.1l4.3,6.8L226,94l0.1,0.1l21.2-9l4.3,6.8l-26.9,16.9l-2.8-4.5l20.4-12.8l-0.1-0.1l-22.6,9.3l-2.5-4
	l18.2-16.2l-0.1-0.1l-20.4,12.8l-2.6-4.2L239,72.1z M208.7,69.9l8.5-13.5l-0.1-0.1l-12.2,10.2L208.7,69.9z M218.1,49.9l5.7,5
	l-16.6,27.7l-4.2-3.7l3.4-5.4l-0.1,0.1l-4.8-4.2l-4.9,4l-3.9-3.5L218.1,49.9z M186.8,31.4l13.8,6.7l-2,4.1l-8.8-4.3l-3.7,7.5l7,3.4
	l-2,4.1l-7-3.4l-4.3,8.8l8.8,4.3l-2,4.1L172.8,60L186.8,31.4z M157.2,28.5l-5.8-0.8l0.6-4.5l17.3,2.4l-0.6,4.5l-5.8-0.8l-3.8,27
	l-5.6-0.8L157.2,28.5z M116.6,40c1.1-0.4,1.8-0.9,2.1-1.6c0.3-0.7,0.3-1.6-0.1-2.7l-0.9-2.3c-0.4-1.1-0.9-1.8-1.5-2.1
	c-0.6-0.3-1.4-0.3-2.3,0l-2.4,0.9l3.2,8.5L116.6,40z M104.6,29.9l7.8-3c2.7-1,4.9-1.2,6.6-0.6c1.7,0.6,2.9,2.1,3.8,4.5l0.7,1.8
	c1.2,3.1,0.7,5.5-1.3,7.2l0,0.1c1.4-0.1,2.6,0.2,3.5,1.1c0.9,0.8,1.7,2.1,2.4,3.9l2,5.2c0.3,0.8,0.6,1.5,0.9,2
	c0.3,0.5,0.6,1,1.1,1.4l-5.4,2c-0.4-0.4-0.7-0.8-0.9-1.2c-0.2-0.4-0.5-1.2-1-2.3l-2-5.4c-0.5-1.4-1.1-2.2-1.8-2.6
	c-0.7-0.4-1.7-0.3-2.9,0.2l-1.8,0.7l4.8,12.7l-5.3,2L104.6,29.9z M99.5,66.5c-2.4,1.4-4.5,1.9-6.4,1.4c-1.9-0.5-3.6-1.8-4.9-4L76,43
	l4.9-2.9l12.5,21.2c0.6,0.9,1.2,1.5,1.8,1.7c0.7,0.2,1.4,0,2.2-0.5c0.8-0.5,1.3-1,1.5-1.7c0.2-0.7,0-1.5-0.6-2.4L85.8,37.2l4.7-2.8
	l12.3,20.9c1.3,2.2,1.7,4.3,1.1,6.2C103.4,63.4,101.9,65.1,99.5,66.5z M76.4,79.4c1.3-1.5,1.1-2.9-0.5-4.3L62.7,63.9
	c-1.6-1.4-3-1.3-4.3,0.2c-1.3,1.5-1.1,2.9,0.5,4.3l13.2,11.2C73.7,81,75.1,80.9,76.4,79.4z M79.8,82.4c-1.8,2.1-3.7,3.3-5.7,3.5
	c-2,0.2-4-0.5-5.9-2.1L55.5,72.9c-1.9-1.6-3-3.5-3.1-5.5c-0.1-2,0.7-4.1,2.5-6.2c1.8-2.1,3.7-3.3,5.7-3.5c2-0.2,4,0.5,5.9,2.1
	l12.7,10.8c1.9,1.6,3,3.5,3.1,5.5C82.4,78.2,81.6,80.3,79.8,82.4z M51.1,98.3l-19.4-1.9l2.7-5.4l12.2,1.7l0-0.1l-8.8-8.6l2.4-4.9
	l13.3,14.2l12.1,6l-2.5,5.1L51.1,98.3z"/>
<path class="st1" d="M193.4,212.5l10.2-8.6l2.9,3.4l-6.5,5.5l5.3,6.3l5.1-4.4l2.9,3.4l-5.1,4.4l6.2,7.3l6.5-5.5l2.9,3.4l-10.2,8.6
	L193.4,212.5z M173.3,223l5.6-2.5l12,15l0.1,0l-7.7-17l4-1.8l12.8,28.4l-4.6,2.1l-14.7-18.3l-0.1,0l9.4,20.7l-4,1.8L173.3,223z
	 M158.7,226.7l4.8-1.1l7.2,30.3l-4.8,1.1L158.7,226.7z M137.3,228.9l4.9-0.2l1.3,26.7l8.1-0.4l0.2,4.4l-12.9,0.7L137.3,228.9z
	 M116.1,257.8c-2.3-0.7-3.8-1.9-4.6-3.5c-0.8-1.7-0.8-3.7-0.1-6.1l4.8-15.7c0.7-2.4,1.9-4.1,3.5-5c1.6-0.9,3.5-1.1,5.8-0.4
	c2.3,0.7,3.8,1.9,4.6,3.5c0.8,1.7,0.8,3.7,0.1,6.1l-0.8,2.6l-4.4-1.3l0.9-2.9c0.6-2,0.1-3.2-1.5-3.7c-1.6-0.5-2.7,0.2-3.3,2.2
	l-4.9,16.3c-0.6,1.9-0.1,3.1,1.6,3.6c1.6,0.5,2.7-0.2,3.3-2.2l1.8-5.8l-2.3-0.7l1.3-4.3l6.8,2.1l-3,9.8c-0.7,2.4-1.9,4.1-3.5,5
	C120.3,258.4,118.4,258.5,116.1,257.8z M95.2,239.3l5.8-14.5l-0.1,0l-9.5,12.3L95.2,239.3z M100.9,218.5l5.8,3.3l-11.1,29.6
	l-4.3-2.4l2.3-5.8l0,0.1l-4.8-2.8l-3.8,4.9l-3.9-2.3L100.9,218.5z M81.1,210.5l-3.9-3.3l2.9-3.4l11.6,9.8l-2.9,3.4l-3.9-3.3
	L67.6,234l-3.7-3.2L81.1,210.5z"/>
<path class="st1" d="M45.4,146.8c4.5-0.5,8.6-7.3,7.1-12.9c0-0.1,0-0.1-0.1-0.1c-5.8,0-11.4,5.6-10.7,10
	C41.7,145.6,43.3,147.2,45.4,146.8"/>
<path class="st1" d="M52.7,179.6c4.6-1.7,7-10,3.9-15.5c0-0.1-0.1-0.1-0.2-0.1c-6.1,1.6-10.4,9-8.5,13.5
	C48.6,179.3,50.6,180.6,52.7,179.6"/>
<path class="st1" d="M60.8,194.5c4.3-2.7,5-11.6,0.7-16.5c-0.1-0.1-0.1-0.1-0.2,0c-5.8,2.9-8.6,11.3-5.8,15.5
	C56.6,195,58.9,195.9,60.8,194.5"/>
<path class="st1" d="M35.6,146.8c-4.5-0.5-8.6-7.3-7.1-12.9c0-0.1,0-0.1,0.1-0.1c5.8,0,11.4,5.6,10.7,10
	C39.2,145.6,37.7,147.2,35.6,146.8"/>
<path class="st1" d="M47.4,162.8c4.6-1.1,7.9-8.6,5.6-14.2c0-0.1-0.1-0.1-0.2-0.1c-5.9,0.8-10.9,7.2-9.7,11.7
	C43.5,162,45.3,163.5,47.4,162.8"/>
<path class="st1" d="M37.5,163.8c-4.7,0.1-9.8-6.4-9-12.4c0-0.1,0-0.1,0.1-0.1c5.9-0.8,12.4,4.3,12.3,8.9
	C41,162.1,39.7,163.9,37.5,163.8"/>
<path class="st1" d="M42.4,182c-4.9,0.7-11-5.4-10.9-11.7c0-0.1,0-0.1,0.1-0.2c6.1-1.5,13.4,2.9,14,7.7
	C45.9,179.8,44.7,181.9,42.4,182"/>
<path class="st1" d="M51.1,199.1c-4.8,1.8-12.3-3-13.6-9.4c0-0.1,0-0.1,0.1-0.2c5.8-2.9,14.2-0.1,15.8,4.7
	C54.1,196.1,53.4,198.5,51.1,199.1"/>
<path class="st1" d="M39.4,131.9c-2.7-3.2-1-10.3,3.6-13.1c0.1,0,0.1,0,0.2,0c3.8,3.7,3.9,11,0.7,13.5
	C42.6,133.4,40.5,133.5,39.4,131.9"/>
<path class="st1" d="M239.4,146.8c-4.5-0.5-8.6-7.3-7.1-12.9c0-0.1,0.1-0.1,0.1-0.1c5.8,0,11.4,5.6,10.7,10
	C243,145.6,241.5,147.2,239.4,146.8"/>
<path class="st1" d="M232,179.6c-4.6-1.7-7-10-3.9-15.5c0-0.1,0.1-0.1,0.2-0.1c6.1,1.6,10.4,9,8.5,13.5
	C236.1,179.3,234.1,180.6,232,179.6"/>
<path class="st1" d="M223.9,194.5c-4.3-2.7-5-11.6-0.7-16.5c0.1-0.1,0.1-0.1,0.2,0c5.8,2.9,8.6,11.3,5.8,15.5
	C228.1,195,225.8,195.9,223.9,194.5"/>
<path class="st1" d="M249.2,146.8c4.5-0.5,8.6-7.3,7.1-12.9c0-0.1,0-0.1-0.1-0.1c-5.8,0-11.4,5.6-10.7,10
	C245.5,145.6,247.1,147.2,249.2,146.8"/>
<path class="st1" d="M237.3,162.8c-4.6-1.1-7.9-8.6-5.6-14.2c0-0.1,0.1-0.1,0.2-0.1c5.9,0.8,10.9,7.2,9.7,11.7
	C241.2,162,239.4,163.5,237.3,162.8"/>
<path class="st1" d="M247.3,163.8c4.7,0.1,9.8-6.4,9-12.4c0-0.1,0-0.1-0.1-0.1c-5.9-0.8-12.4,4.3-12.3,8.9
	C243.7,162.1,245,163.9,247.3,163.8"/>
<path class="st1" d="M242.3,182c4.9,0.7,11-5.4,10.9-11.7c0-0.1,0-0.1-0.1-0.2c-6.1-1.5-13.4,2.9-14,7.7
	C238.8,179.8,240,181.9,242.3,182"/>
<path class="st1" d="M233.6,199.1c4.8,1.8,12.3-3,13.6-9.4c0-0.1,0-0.1-0.1-0.2c-5.8-2.9-14.2-0.1-15.8,4.7
	C230.6,196.1,231.3,198.5,233.6,199.1"/>
<path class="st1" d="M245.4,131.9c2.7-3.2,1-10.3-3.6-13.1c-0.1,0-0.1,0-0.2,0c-3.8,3.7-3.9,11-0.7,13.5
	C242.2,133.4,244.2,133.5,245.4,131.9"/>
<path class="st1" d="M142.4,82c33.3,0,60.3,27,60.3,60.3c0,33.3-27,60.3-60.3,60.3c-33.3,0-60.3-27-60.3-60.3
	C82,109,109,82,142.4,82 M142.4,75.3c37,0,67,30,67,67c0,37-30,67-67,67c-37,0-67-30-67-67C75.3,105.3,105.3,75.3,142.4,75.3z"/>
<path class="st1" d="M101.1,96l-4.1,4.6c5.8,5.3,10.4,11.7,13.6,18.8c3.2,7.2,4.8,15,4.8,22.9c0,7.9-1.6,15.7-4.8,22.9
	c-3.2,7.1-7.8,13.5-13.6,18.8l4.1,4.6c6.4-5.8,11.6-12.9,15.1-20.9c3.6-8,5.4-16.7,5.4-25.4c0-8.8-1.8-17.4-5.4-25.5
	C112.7,109,107.5,101.9,101.1,96"/>
<path class="st1" d="M113.7,139.7h9c1.4,0,2.6,1.2,2.6,2.6v0c0,1.4-1.2,2.6-2.6,2.6h-9c-1.4,0-2.6-1.2-2.6-2.6v0
	C111.1,140.9,112.3,139.7,113.7,139.7"/>
<path class="st1" d="M111.2,125.3l8.7-2.4c1.4-0.4,2.9,0.4,3.2,1.8l0,0c0.4,1.4-0.4,2.9-1.8,3.2l-8.7,2.4c-1.4,0.4-2.9-0.4-3.2-1.8
	v0C109,127.1,109.8,125.7,111.2,125.3"/>
<path class="st1" d="M104.3,110.1l8.3-3.6c1.3-0.6,2.9,0,3.5,1.4v0c0.6,1.3,0,2.9-1.4,3.5l-8.3,3.6c-1.3,0.6-2.9,0-3.5-1.4l0,0
	C102.4,112.2,103,110.7,104.3,110.1"/>
<path class="st1" d="M104.3,174.6l8.3,3.6c1.3,0.6,2.9,0,3.5-1.4l0,0c0.6-1.3,0-2.9-1.4-3.5l-8.3-3.6c-1.3-0.6-2.9,0-3.5,1.4l0,0
	C102.4,172.5,103,174.1,104.3,174.6"/>
<path class="st1" d="M111.2,160.5l8.7,2.4c1.4,0.4,2.9-0.4,3.2-1.8l0,0c0.4-1.4-0.4-2.9-1.8-3.2l-8.7-2.4c-1.4-0.4-2.9,0.4-3.2,1.8
	l0,0C109,158.6,109.8,160.1,111.2,160.5"/>
<path class="st1" d="M183.6,96c-6.4,5.8-11.6,13-15.1,20.9c-3.6,8-5.4,16.7-5.4,25.5c0,8.8,1.8,17.4,5.4,25.4
	c3.5,7.9,8.7,15,15.1,20.9l4.1-4.6c-5.8-5.3-10.4-11.7-13.6-18.8c-3.2-7.2-4.8-15-4.8-22.9c0-7.9,1.6-15.7,4.8-22.9
	c3.2-7.1,7.8-13.5,13.6-18.8L183.6,96z"/>
<path class="st1" d="M171,139.7h-9c-1.4,0-2.6,1.2-2.6,2.6v0c0,1.4,1.2,2.6,2.6,2.6h9c1.4,0,2.6-1.2,2.6-2.6v0
	C173.6,140.9,172.4,139.7,171,139.7"/>
<path class="st1" d="M173.5,125.3l-8.7-2.4c-1.4-0.4-2.9,0.4-3.2,1.8v0c-0.4,1.4,0.4,2.9,1.8,3.2l8.7,2.4c1.4,0.4,2.9-0.4,3.2-1.8v0
	C175.7,127.1,174.9,125.7,173.5,125.3"/>
<path class="st1" d="M180.4,110.1l-8.3-3.6c-1.3-0.6-2.9,0-3.5,1.4v0c-0.6,1.3,0,2.9,1.4,3.5l8.3,3.6c1.3,0.6,2.9,0,3.5-1.4l0,0
	C182.3,112.2,181.7,110.7,180.4,110.1"/>
<path class="st1" d="M180.4,174.6l-8.3,3.6c-1.3,0.6-2.9,0-3.5-1.4l0,0c-0.6-1.3,0-2.9,1.4-3.5l8.3-3.6c1.3-0.6,2.9,0,3.5,1.4l0,0
	C182.3,172.5,181.7,174.1,180.4,174.6"/>
<path class="st1" d="M173.5,160.5l-8.7,2.4c-1.4,0.4-2.9-0.4-3.2-1.8v0c-0.4-1.4,0.4-2.9,1.8-3.2l8.7-2.4c1.4-0.4,2.9,0.4,3.2,1.8
	l0,0C175.7,158.6,174.9,160.1,173.5,160.5"/>
</svg>
